<?xml version="1.0" encoding="UTF-8"?>
<svg version="1.1" xmlns="http://www.w3.org/2000/svg" width="623" height="622">
<path d="M0 0 C205.59 0 411.18 0 623 0 C623 205.26 623 410.52 623 622 C417.41 622 211.82 622 0 622 C0 416.74 0 211.48 0 0 Z " fill="#FEFEFE" transform="translate(0,0)"/>
<path d="M0 0 C205.59 0 411.18 0 623 0 C623 205.26 623 410.52 623 622 C417.41 622 211.82 622 0 622 C0 416.74 0 211.48 0 0 Z M33 33 C33 217.47 33 401.94 33 592 C217.47 592 401.94 592 592 592 C592 407.53 592 223.06 592 33 C407.53 33 223.06 33 33 33 Z " fill="#C6122F" transform="translate(0,0)"/>
<path d="M0 0 C11.41487481 8.84277308 18.40246387 21.70333008 20.9375 35.8203125 C24.48338498 64.15106154 16.47085163 90.21523663 -0.8125 112.68359375 C-9.68356273 123.20213956 -22.80468468 131.18208255 -36.625 132.83984375 C-46.21075609 133.42746734 -55.65664799 133.67323477 -64.625 129.83984375 C-66.2028125 129.22109375 -66.2028125 129.22109375 -67.8125 128.58984375 C-75.25762749 123.95731998 -79.46678834 117.40992138 -83.625 109.83984375 C-85.8998111 116.30421766 -87.71489348 122.80595401 -89.32421875 129.46484375 C-89.68408623 130.94525146 -89.68408623 130.94525146 -90.05122375 132.45556641 C-90.55332295 134.52909927 -91.05322571 136.60316512 -91.55102539 138.67773438 C-92.31092525 141.83330442 -93.08590062 144.98493364 -93.86132812 148.13671875 C-94.34989068 150.16253579 -94.83755136 152.18857059 -95.32421875 154.21484375 C-95.55541916 155.14635254 -95.78661957 156.07786133 -96.02482605 157.03759766 C-97.3813567 162.77971309 -98.02576004 167.9343661 -97.625 173.83984375 C-94.52737004 176.93747371 -91.32253399 176.95550093 -87.078125 177.15625 C-86.23378906 177.19814453 -85.38945312 177.24003906 -84.51953125 177.28320312 C-83.64683594 177.32251953 -82.77414062 177.36183594 -81.875 177.40234375 C-80.98683594 177.44552734 -80.09867187 177.48871094 -79.18359375 177.53320312 C-76.99754037 177.6389799 -74.81137911 177.74106921 -72.625 177.83984375 C-72.76730808 179.25686888 -72.91400746 180.67345335 -73.0625 182.08984375 C-73.18431641 183.27320313 -73.18431641 183.27320313 -73.30859375 184.48046875 C-73.625 186.83984375 -73.625 186.83984375 -74.625 190.83984375 C-97.725 190.83984375 -120.825 190.83984375 -144.625 190.83984375 C-143.625 180.83984375 -143.625 180.83984375 -142.625 177.83984375 C-141.88894531 177.79085937 -141.15289062 177.741875 -140.39453125 177.69140625 C-138.93080078 177.57925781 -138.93080078 177.57925781 -137.4375 177.46484375 C-135.99310547 177.36042969 -135.99310547 177.36042969 -134.51953125 177.25390625 C-129.92144501 176.59615032 -127.51367151 175.90270133 -124.47265625 172.265625 C-122.30566188 168.24775171 -121.14221202 164.44041304 -120.0625 160.02734375 C-119.85343018 159.20580811 -119.64436035 158.38427246 -119.42895508 157.5378418 C-117.40613633 149.37859261 -115.93218945 141.13996539 -114.625 132.83984375 C-113.965 132.83984375 -113.305 132.83984375 -112.625 132.83984375 C-112.62113281 131.86724609 -112.62113281 131.86724609 -112.6171875 130.875 C-112.1813118 119.81828641 -109.28740928 109.39231082 -106.59765625 98.70898438 C-101.85233064 79.83249836 -97.1585221 60.93177976 -93.0625 41.90234375 C-92.68544922 40.21866699 -92.68544922 40.21866699 -92.30078125 38.50097656 C-90.66199314 30.66257769 -89.84834316 22.84460491 -90.625 14.83984375 C-91.285 13.84984375 -91.945 12.85984375 -92.625 11.83984375 C-95.45376903 11.17097202 -95.45376903 11.17097202 -98.625 11.83984375 C-103.25194572 15.16928617 -105.84391596 18.28754107 -108.625 23.33984375 C-109.12483398 24.24210693 -109.12483398 24.24210693 -109.63476562 25.16259766 C-112.94951037 31.23910152 -115.84560109 37.50197199 -118.625 43.83984375 C-122.57508059 43.15604829 -125.25957018 42.05141192 -128.625 39.83984375 C-126.89195426 26.6056763 -117.43337938 10.2288953 -107.484375 1.23828125 C-100.82369322 -3.77122312 -94.85371956 -5.99755841 -86.45703125 -5.56640625 C-81.18311343 -4.80987183 -77.41006069 -3.4839309 -74.09765625 0.828125 C-71.23784981 5.62762625 -69.71583337 10.38567691 -68.625 15.83984375 C-68.09132813 15.19917969 -67.55765625 14.55851562 -67.0078125 13.8984375 C-50.31761631 -5.47720548 -23.07928143 -15.12728542 0 0 Z " fill="#C5122F" transform="translate(384.625,241.16015625)"/>
<path d="M0 0 C2.39188532 2.39188532 2.25125801 2.89200089 2.25828552 6.14837646 C2.26852753 7.45210205 2.26852753 7.45210205 2.27897644 8.78216553 C2.27514702 10.21595551 2.27514702 10.21595551 2.27124023 11.67871094 C2.27646698 12.68373657 2.28169373 13.68876221 2.28707886 14.72424316 C2.2973401 16.91229434 2.30310294 19.10037007 2.30496025 21.28844452 C2.308612 24.75167824 2.325307 28.2146225 2.34571838 31.67779541 C2.40123857 41.52635312 2.43179963 51.37495435 2.45629883 61.22363281 C2.4721776 67.24308658 2.50240462 73.26233663 2.54106331 79.28168488 C2.55271514 81.57655931 2.55864367 83.8714702 2.55874443 86.16637421 C2.55893657 89.37903577 2.57721109 92.5911365 2.59936523 95.80371094 C2.59478806 96.751474 2.59021088 97.69923706 2.585495 98.67572021 C2.65810986 105.30231939 4.26934296 109.25481986 7.8125 114.875 C13.15157311 118.43438208 18.79208168 117.71895713 25 117 C32.65971759 115.27258594 37.71098146 110.41006491 42 104 C50.78071687 86.78067212 50.67295768 67.84581368 51 49 C51.03287109 47.42726318 51.03287109 47.42726318 51.06640625 45.82275391 C51.12221773 42.94427683 51.15994234 40.06637356 51.1875 37.1875 C51.20063232 36.34106934 51.21376465 35.49463867 51.22729492 34.62255859 C51.23440696 29.2622671 51.20231725 24.24616869 47.234375 20.19921875 C44.56418488 18.76609223 42.24058675 18.2753289 39.25 17.8125 C37.5175 17.544375 35.785 17.27625 34 17 C34 12.71 34 8.42 34 4 C35.20422607 3.91435791 36.40845215 3.82871582 37.64916992 3.74047852 C42.17621486 3.41842457 46.7032246 3.09587813 51.23022461 2.77319336 C53.17845743 2.63439001 55.1266994 2.49571496 57.07495117 2.35717773 C58.9676419 2.2225756 60.86031183 2.0876806 62.75296021 1.95248413 C64.60546556 1.82063271 66.45806587 1.69010826 68.3107605 1.5609436 C72.26465385 1.28268358 76.21346677 0.99224654 80.15869141 0.60888672 C81.31933105 0.49947754 82.4799707 0.39006836 83.67578125 0.27734375 C84.65071533 0.17542725 85.62564941 0.07351074 86.63012695 -0.03149414 C89 0 89 0 92 2 C92.37638092 3.97568798 92.37638092 3.97568798 92.37854004 6.44535828 C92.38674271 7.38037674 92.39494537 8.3153952 92.40339661 9.27874756 C92.39724838 10.30784241 92.39110016 11.33693726 92.38476562 12.3972168 C92.3901384 13.4786647 92.39551117 14.56011261 92.40104675 15.67433167 C92.41085126 18.02935177 92.41376089 20.38440812 92.41069031 22.73944664 C92.40622794 26.46765344 92.42016974 30.19538157 92.43908691 33.92353821 C92.47595932 41.84485179 92.48973577 49.76612064 92.5 57.6875 C92.51188897 66.8482091 92.53363646 76.0087385 92.58000183 85.16935158 C92.59357849 88.84034409 92.58939872 92.51104481 92.58459473 96.18205261 C92.59393754 98.43997569 92.60410691 100.69789556 92.61523438 102.95581055 C92.60908615 103.97478424 92.60293793 104.99375793 92.59660339 106.04360962 C92.64611836 111.77290756 93.12557288 115.98464307 96 121 C98.8949634 122.47477023 98.8949634 122.47477023 102.1875 122.9375 C104.105625 123.288125 106.02375 123.63875 108 124 C108 128.29 108 132.58 108 137 C105.62361328 137.07347656 105.62361328 137.07347656 103.19921875 137.1484375 C92.08878601 137.52419454 81.05814172 138.00800157 70.01635742 139.33935547 C65.98595059 139.82287632 62.06072238 140.19336773 58 140 C57 139 57 139 56.88647461 136.22436523 C56.89432983 134.40980835 56.89432983 134.40980835 56.90234375 132.55859375 C56.90717773 130.60083008 56.90717773 130.60083008 56.91210938 128.60351562 C56.92046599 127.2148431 56.92893095 125.82617123 56.9375 124.4375 C56.94251334 123.04492344 56.94707653 121.65234519 56.95117188 120.25976562 C56.96300566 116.8398013 56.9794912 113.41992156 57 110 C53.78435829 111.81322377 51.21137605 113.56823281 48.72265625 116.29296875 C36.85689061 128.9199222 23.78319054 139.06933909 5.7734375 140.203125 C-4.68552178 140.34738651 -14.94403212 139.79195635 -23.2578125 132.7890625 C-33.30530216 122.4712368 -36.15236397 109.88654141 -36.1418457 95.91918945 C-36.14705734 94.77368622 -36.14705734 94.77368622 -36.15237427 93.6050415 C-36.15967375 91.96220423 -36.16504971 90.31935746 -36.16866493 88.67650795 C-36.17588966 86.07423209 -36.19159635 83.47213838 -36.21000671 80.86991882 C-36.26222372 73.47669827 -36.31050138 66.08358699 -36.32592773 58.69018555 C-36.33600702 54.15498879 -36.3653148 49.62026603 -36.40724754 45.08525658 C-36.41954766 43.36174286 -36.4246806 41.63816226 -36.42244911 39.91460609 C-36.42009654 37.50676302 -36.442252 35.10028539 -36.4699707 32.69262695 C-36.46336929 31.98446335 -36.45676788 31.27629974 -36.44996643 30.54667664 C-36.54019131 25.77022374 -37.64470674 23.37112601 -41 20 C-45.04367066 17.36352673 -49.28717407 17.41583758 -54 17 C-54 12.71 -54 8.42 -54 4 C-52.82493896 3.91435791 -51.64987793 3.82871582 -50.43920898 3.74047852 C-46.0575178 3.42048377 -41.67606605 3.09730642 -37.29467773 2.77319336 C-35.40248846 2.63365996 -33.51023631 2.49497651 -31.61791992 2.35717773 C-28.88963911 2.15835275 -26.16160304 1.95641853 -23.43359375 1.75390625 C-22.59477158 1.6934462 -21.7559494 1.63298615 -20.89170837 1.57069397 C-13.91069845 1.04743118 -7.00562486 -0.41209558 0 0 Z " fill="#C6122E" transform="translate(131,234)"/>
<path d="M0 0 C0.62519531 0.3403125 1.25039063 0.680625 1.89453125 1.03125 C5.57736465 3.25145099 6.8314713 4.56768725 8.4375 8.6875 C8.67801626 10.1170854 8.8619653 11.55690994 9 13 C9.08121094 13.83402344 9.16242188 14.66804688 9.24609375 15.52734375 C9.45953392 19.82848656 9.23961955 22.49311249 7.375 26.4375 C3.70107137 30.40147563 0.31574481 32.13191549 -5.0625 32.375 C-9.06232701 31.99406409 -10.93019593 31.52807394 -14 29 C-16.45883285 25.38005163 -16.20422294 22.02803868 -16.125 17.75 C-16.10695313 16.48671875 -16.08890625 15.2234375 -16.0703125 13.921875 C-16.04710937 12.95765625 -16.02390625 11.9934375 -16 11 C-19.25639659 10.05728998 -19.25639659 10.05728998 -23 10 C-28.82930976 13.74741342 -30.96640338 20.62258118 -33 27 C-33.66148567 30.29615304 -34.15786521 33.55555662 -34.54296875 36.89453125 C-35 40 -35 40 -35.94921875 43.109375 C-37.54510069 48.42042903 -37.98599779 53.94721388 -38.625 59.4375 C-39.07875 63.253125 -39.5325 67.06875 -40 71 C-29.44 71 -18.88 71 -8 71 C-8.66 74.96 -9.32 78.92 -10 83 C-20.56 83 -31.12 83 -42 83 C-42.33 87.62 -42.66 92.24 -43 97 C-43.46947503 100.41271619 -43.96954765 103.77643884 -44.56640625 107.1640625 C-44.7978257 108.51938332 -44.7978257 108.51938332 -45.03392029 109.90208435 C-45.53456193 112.81135178 -46.04715681 115.71830302 -46.5625 118.625 C-46.73918213 119.63078094 -46.91586426 120.63656189 -47.09790039 121.67282104 C-64.48475169 220.32917425 -64.48475169 220.32917425 -88 252 C-88.763125 253.0725 -89.52625 254.145 -90.3125 255.25 C-95.92970071 260.99783328 -102.68839572 264.04009386 -110.6875 264.375 C-116.41676732 264.29883544 -120.55108939 262.58636671 -125 259 C-128.99658681 254.5507611 -130.28989295 248.89449008 -130 243 C-128.63921256 239.32587391 -127.13102582 236.38749246 -124 234 C-121.00390625 233.53125 -121.00390625 233.53125 -117.5625 233.5 C-115.86287109 233.45359375 -115.86287109 233.45359375 -114.12890625 233.40625 C-111 234 -111 234 -108.609375 236.27734375 C-105.97849051 240.72813619 -106.49064167 244.45320835 -107.5 249.5 C-107.665 249.995 -107.83 250.49 -108 251 C-103.77941588 250.18834921 -101.57987314 249.75687562 -98.9140625 246.27734375 C-80.30188493 214.40873767 -79.48096952 167.61017164 -74.15625 131.71484375 C-73.03396003 124.16744371 -71.85149967 116.63063947 -70.63973999 109.09716797 C-70.32462892 107.13791354 -70.01151754 105.17833781 -69.69848633 103.21875 C-69.50536865 102.02378906 -69.31225098 100.82882812 -69.11328125 99.59765625 C-68.94610596 98.56133057 -68.77893066 97.52500488 -68.60668945 96.45727539 C-67.81695571 91.95690533 -66.89608143 87.48040714 -66 83 C-75.57 83 -85.14 83 -95 83 C-94 74 -94 74 -93 70 C-83.43 70 -73.86 70 -64 70 C-63.34 66.04 -62.68 62.08 -62 58 C-61.11515791 54.30494094 -60.20186175 50.65732493 -59.1875 47 C-58.79220093 45.56672363 -58.79220093 45.56672363 -58.38891602 44.10449219 C-56.42452748 37.15075787 -54.10516243 30.53399 -51 24 C-50.63519531 23.14664063 -50.27039063 22.29328125 -49.89453125 21.4140625 C-45.66229778 12.02514866 -38.59858104 3.25029419 -29 -1 C-19.82610921 -4.09810393 -8.55396805 -5.16802237 0 0 Z " fill="#C5122E" transform="translate(520,169)"/>
<path d="M0 0 C7.17490193 4.23436835 9.76965432 8.98244374 11.81567383 16.82519531 C12.81188473 21.71120495 12.88227317 26.46565142 12.8125 31.4375 C12.80452393 32.47527588 12.79654785 33.51305176 12.78833008 34.58227539 C12.56499811 46.83914823 11.20150764 59.46886634 6.4375 70.875 C6.128125 71.64070313 5.81875 72.40640625 5.5 73.1953125 C3.56264671 77.781391 1.38215768 81.83661233 -1.5625 85.875 C-2.08972656 86.60976563 -2.61695313 87.34453125 -3.16015625 88.1015625 C-6.55276608 92.6797217 -9.51079334 96.17292434 -14.5625 98.875 C-15.2225 98.875 -15.8825 98.875 -16.5625 98.875 C-16.5625 99.535 -16.5625 100.195 -16.5625 100.875 C-23.79187648 103.59561513 -31.86549309 104.60154089 -39.26171875 101.8828125 C-46.53684519 97.51032564 -51.01771099 90.14301196 -53.1809082 82.02416992 C-55.79854196 67.28134847 -54.2296777 51.02822518 -49.5625 36.875 C-49.23306396 35.84342773 -49.23306396 35.84342773 -48.89697266 34.79101562 C-44.39122657 20.9517106 -38.00046332 7.56358878 -25 -0.0625 C-16.99566957 -3.72962856 -7.98950621 -3.66731432 0 0 Z " fill="#FEFBFB" transform="translate(364.5625,254.125)"/>
<path d="M0 0 C3.81861696 2.70572313 6.7973537 4.99372411 7.70703125 9.76953125 C8.33205691 16.12395884 7.29743389 20.45132393 3.70703125 25.76953125 C-0.87698524 30.07572856 -5.61783364 30.05569886 -11.6328125 29.984375 C-16.41567506 29.59809388 -18.46712994 27.7100699 -21.54296875 24.20703125 C-25.08774407 19.26966563 -24.75865981 14.71140426 -24.29296875 8.76953125 C-22.49047686 4.16316307 -19.20374485 1.64275451 -15.29296875 -1.23046875 C-10.13945196 -2.9552766 -4.7935018 -2.57232209 0 0 Z " fill="#C4122D" transform="translate(533.29296875,343.23046875)"/>
<path d="M0 0 C0 9.24 0 18.48 0 28 C-0.33 28 -0.66 28 -1 28 C-1.33 19.42 -1.66 10.84 -2 2 C-4.31 4.97 -6.62 7.94 -9 11 C-10.65 11.33 -12.3 11.66 -14 12 C-3.93659942 0 -3.93659942 0 0 0 Z " fill="#F6BDC3" transform="translate(188,344)"/>
<path d="M0 0 C0.33 0 0.66 0 1 0 C0.53007706 8.47097928 -0.25359884 16.69187796 -2 25 C-2.66 25 -3.32 25 -4 25 C-4.11026464 19.75553818 -3.70328983 14.75639047 -3 9.5625 C-2.90460938 8.83095703 -2.80921875 8.09941406 -2.7109375 7.34570312 C-2.47794062 5.563277 -2.23953734 3.78155896 -2 2 C-1.34 2 -0.68 2 0 2 C0 1.34 0 0.68 0 0 Z " fill="#BC2F3D" transform="translate(476,259)"/>
<path d="M0 0 C0.99386719 0.00902344 1.98773438 0.01804688 3.01171875 0.02734375 C4.15060547 0.04474609 4.15060547 0.04474609 5.3125 0.0625 C5.3125 0.3925 5.3125 0.7225 5.3125 1.0625 C-20.45126337 4.64415209 -20.45126337 4.64415209 -32.6875 4.0625 C-25.92310579 0.48391726 -19.07300581 0.98556036 -11.578125 1.125 C-7.58311721 1.03862145 -4.08954491 -0.04811229 0 0 Z " fill="#FCDADC" transform="translate(214.6875,232.9375)"/>
<path d="M0 0 C0.66 0 1.32 0 2 0 C2.05834395 3.87493616 2.09371201 7.74975836 2.125 11.625 C2.15013672 13.26662109 2.15013672 13.26662109 2.17578125 14.94140625 C2.23923884 25.41190922 2.23923884 25.41190922 0 30 C-0.66 30.33 -1.32 30.66 -2 31 C-1.85636473 29.62476865 -1.70996483 28.24982598 -1.5625 26.875 C-1.48128906 26.10929687 -1.40007812 25.34359375 -1.31640625 24.5546875 C-1.0950443 22.7673947 -0.80664263 20.98771728 -0.46875 19.21875 C0.09881024 15.32150304 0.10869868 11.55544122 0.0625 7.625 C0.05798828 6.88894531 0.05347656 6.15289062 0.04882812 5.39453125 C0.03715142 3.59631842 0.01922011 1.79814803 0 0 Z " fill="#B8293A" transform="translate(294,254)"/>
<path d="M0 0 C1.02120344 2.65512895 1.05826634 3.82936287 0.125 6.5625 C-1.19944515 10.60941572 -1.47071296 14.37881402 -1.75390625 18.609375 C-2 21 -2 21 -3 23 C-3.2275015 24.87056791 -3.40962811 26.74685958 -3.5625 28.625 C-3.68818359 30.12933594 -3.68818359 30.12933594 -3.81640625 31.6640625 C-3.87699219 32.43492187 -3.93757813 33.20578125 -4 34 C-4.66 34 -5.32 34 -6 34 C-6.19532482 28.43324252 -5.58678468 24.37743698 -4 19 C-3.46788241 15.73361665 -3.00349056 12.46346106 -2.5625 9.18359375 C-1.99553052 5.97470401 -1.10476785 3.06112759 0 0 Z " fill="#E9AEB3" transform="translate(488,190)"/>
<path d="M0 0 C6.27 0 12.54 0 19 0 C18.67 2.97 18.34 5.94 18 9 C17.67 9 17.34 9 17 9 C16.67 6.69 16.34 4.38 16 2 C11.05 2 6.1 2 1 2 C0.67 1.34 0.34 0.68 0 0 Z " fill="#B7293A" transform="translate(293,419)"/>
<path d="M0 0 C0.68384766 0.00902344 1.36769531 0.01804688 2.07226562 0.02734375 C3.73583287 0.05061042 5.39921631 0.08646833 7.0625 0.125 C7.0625 0.785 7.0625 1.445 7.0625 2.125 C5.52529297 2.21587891 5.52529297 2.21587891 3.95703125 2.30859375 C2.59634305 2.39305026 1.23566657 2.47769567 -0.125 2.5625 C-0.79853516 2.60181641 -1.47207031 2.64113281 -2.16601562 2.68164062 C-5.11816397 2.86885003 -7.91431587 3.11965468 -10.80078125 3.78515625 C-11.85845703 3.95337891 -11.85845703 3.95337891 -12.9375 4.125 C-13.5975 3.465 -14.2575 2.805 -14.9375 2.125 C-9.77803135 0.4208322 -5.4949667 -0.09725605 0 0 Z " fill="#C23947" transform="translate(505.9375,165.875)"/>
<path d="M0 0 C2.83485297 4.25227946 1.62068817 6.84827254 0.71484375 11.703125 C-0.33088158 16.52603308 -1.60275123 21.26798415 -3 26 C-4.09964408 22.64283117 -3.88421538 20.24500139 -3.22265625 16.796875 C-3.03896484 15.8171875 -2.85527344 14.8375 -2.66601562 13.828125 C-2.46685547 12.81234375 -2.26769531 11.7965625 -2.0625 10.75 C-1.86720703 9.71875 -1.67191406 8.6875 -1.47070312 7.625 C-0.98796618 5.08180048 -0.49747983 2.54034954 0 0 Z " fill="#BD384F" transform="translate(439,345)"/>
<path d="M0 0 C1.91635217 -0.05423638 3.83314925 -0.09289963 5.75 -0.125 C7.35101563 -0.15980469 7.35101563 -0.15980469 8.984375 -0.1953125 C12 0 12 0 16 2 C9.565 2.495 9.565 2.495 3 3 C2.34 5.64 1.68 8.28 1 11 C0.67 11 0.34 11 0 11 C0 7.37 0 3.74 0 0 Z " fill="#B90D21" transform="translate(78,238)"/>
<path d="M0 0 C0.33 0 0.66 0 1 0 C1.02505615 0.70084717 1.0501123 1.40169434 1.07592773 2.1237793 C1.19226545 5.31185488 1.31482044 8.49966242 1.4375 11.6875 C1.47681641 12.79029297 1.51613281 13.89308594 1.55664062 15.02929688 C1.59853516 16.09599609 1.64042969 17.16269531 1.68359375 18.26171875 C1.72025146 19.24100342 1.75690918 20.22028809 1.79467773 21.22924805 C1.99219333 23.89465177 2.41573033 26.39469788 3 29 C2.01 28.67 1.02 28.34 0 28 C0 18.76 0 9.52 0 0 Z " fill="#BA2242" transform="translate(188,345)"/>
<path d="M0 0 C0.66 0.33 1.32 0.66 2 1 C-1.96 4.96 -5.92 8.92 -10 13 C-10.66 12.67 -11.32 12.34 -12 12 C-8.27653164 7.57905197 -4.70478962 3.42166518 0 0 Z " fill="#F6D5DA" transform="translate(338,255)"/>
<path d="M0 0 C0.66 0.33 1.32 0.66 2 1 C-0.09663099 4.97256398 -2.30075595 7.43898489 -6 10 C-6.66 10 -7.32 10 -8 10 C-6.34908222 5.70761377 -3.26245434 3.1206085 0 0 Z " fill="#C43C4E" transform="translate(484,172)"/>
<path d="M0 0 C0.33 0 0.66 0 1 0 C1.33249053 6.20648988 0.54922986 10.31325646 -2 16 C-2.66 16.66 -3.32 17.32 -4 18 C-3.31195504 11.80759538 -1.71951285 5.98044406 0 0 Z " fill="#F7D0D8" transform="translate(458,356)"/>
<path d="M0 0 C0.66 0.33 1.32 0.66 2 1 C0.10019993 4.51463012 -1.56635317 6.89550678 -5 9 C-5.66 9 -6.32 9 -7 9 C-5.44499019 5.18315774 -2.96404505 2.80804268 0 0 Z " fill="#C1364A" transform="translate(325,247)"/>
<path d="M0 0 C0.66 0.33 1.32 0.66 2 1 C1.34 1.66 0.68 2.32 0 3 C-0.64767793 5.57061311 -0.64767793 5.57061311 -1 8 C-1.99 7.67 -2.98 7.34 -4 7 C-4.33 9.31 -4.66 11.62 -5 14 C-5.33 14 -5.66 14 -6 14 C-5.66290194 7.48277089 -4.55774263 4.67460782 0 0 Z " fill="#BC4052" transform="translate(396,403)"/>
<path d="M0 0 C0.33 0 0.66 0 1 0 C0.67 4.62 0.34 9.24 0 14 C-2.35333796 9.29332409 -2.17102038 7.1306114 -2 2 C-1.34 2 -0.68 2 0 2 C0 1.34 0 0.68 0 0 Z " fill="#C1384E" transform="translate(476,259)"/>
<path d="M0 0 C0.33 0 0.66 0 1 0 C1.35858439 3.85478218 1.2754818 5.57759458 -0.875 8.875 C-1.57625 9.57625 -2.2775 10.2775 -3 11 C-3.66 11 -4.32 11 -5 11 C-3.55049545 7.2089881 -1.84827434 3.6125362 0 0 Z " fill="#F4D4D3" transform="translate(441,405)"/>
<path d="M0 0 C0 0.66 0 1.32 0 2 C-4.95 1.67 -9.9 1.34 -15 1 C-15 0.67 -15 0.34 -15 0 C-3.63636364 -1.81818182 -3.63636364 -1.81818182 0 0 Z " fill="#B9324B" transform="translate(222,235)"/>
<path d="M0 0 C1.45047396 2.90094791 0.45356803 4.55972596 -0.4375 7.625 C-0.86869141 9.12933594 -0.86869141 9.12933594 -1.30859375 10.6640625 C-1.53675781 11.43492187 -1.76492188 12.20578125 -2 13 C-4.09375 9.3828125 -4.09375 9.3828125 -3.25 5.9375 C-2 3 -2 3 0 0 Z " fill="#FDE8E1" transform="translate(431,385)"/>
<path d="M0 0 C0.66 0 1.32 0 2 0 C1.40984815 5.50808397 0.43336231 10.64878069 -1 16 C-1.33 16 -1.66 16 -2 16 C-1.85975781 13.52039864 -1.7130815 11.04147598 -1.5625 8.5625 C-1.52318359 7.85544922 -1.48386719 7.14839844 -1.44335938 6.41992188 C-1.11328125 1.11328125 -1.11328125 1.11328125 0 0 Z " fill="#B01129" transform="translate(290,381)"/>
<path d="M0 0 C0 0.66 0 1.32 0 2 C-0.99 2.33 -1.98 2.66 -3 3 C-3.33 3.66 -3.66 4.32 -4 5 C-4.66 4.67 -5.32 4.34 -6 4 C-7.70363822 3.77377919 -9.41328701 3.59111527 -11.125 3.4375 C-12.03507813 3.35371094 -12.94515625 3.26992188 -13.8828125 3.18359375 C-14.58148438 3.12300781 -15.28015625 3.06242187 -16 3 C-16 2.67 -16 2.34 -16 2 C-15.24074219 1.93941406 -14.48148438 1.87882812 -13.69921875 1.81640625 C-12.70535156 1.73261719 -11.71148437 1.64882813 -10.6875 1.5625 C-9.70136719 1.48128906 -8.71523437 1.40007812 -7.69921875 1.31640625 C-5.01023135 1.00119933 -2.69190636 0 0 0 Z " fill="#B83144" transform="translate(258,417)"/>
<path d="M0 0 C0.66 0.33 1.32 0.66 2 1 C0.25740319 10.59453303 0.25740319 10.59453303 -3 14 C-2.48594831 9.03083364 -1.76615118 4.70973649 0 0 Z " fill="#F6CBCE" transform="translate(300,350)"/>
<path d="M0 0 C5.61 0.33 11.22 0.66 17 1 C17 1.33 17 1.66 17 2 C8.585 2.495 8.585 2.495 0 3 C0 2.01 0 1.02 0 0 Z " fill="#B92F46" transform="translate(342,250)"/>
<path d="M0 0 C0.33 0 0.66 0 1 0 C3 7.625 3 7.625 3 11 C2.01 11 1.02 11 0 11 C0 7.37 0 3.74 0 0 Z " fill="#D15868" transform="translate(313,249)"/>
<path d="M0 0 C5.78461538 3.44615385 5.78461538 3.44615385 6.875 6.25 C6.936875 7.11625 6.936875 7.11625 7 8 C6.34 8 5.68 8 5 8 C4.67 7.34 4.34 6.68 4 6 C3.01 5.67 2.02 5.34 1 5 C0.67 3.35 0.34 1.7 0 0 Z " fill="#C1354E" transform="translate(521,170)"/>
<path d="M0 0 C0.33 0 0.66 0 1 0 C1.390625 5.95703125 1.390625 5.95703125 1 8 C-0.32 8.99 -1.64 9.98 -3 11 C-2.01 7.37 -1.02 3.74 0 0 Z " fill="#FBD9DC" transform="translate(453,374)"/>
<path d="M0 0 C0.66 1.32 1.32 2.64 2 4 C0.35 5.98 -1.3 7.96 -3 10 C-4 7 -4 7 -3 4 C-2.01 4 -1.02 4 0 4 C0 2.68 0 1.36 0 0 Z " fill="#F6D7DC" transform="translate(363,334)"/>
<path d="M0 0 C0.66 0.99 1.32 1.98 2 3 C1.3125 5.625 1.3125 5.625 0 8 C-0.99 8.33 -1.98 8.66 -3 9 C-2.01 6.03 -1.02 3.06 0 0 Z " fill="#C23A4D" transform="translate(177,329)"/>
<path d="M0 0 C2 3 2 3 1.75 5.5 C1 8 1 8 -1 11 C-1.125 3.375 -1.125 3.375 0 0 Z " fill="#BF1223" transform="translate(183,307)"/>
<path d="M0 0 C-0.33 1.32 -0.66 2.64 -1 4 C-3.4375 3.625 -3.4375 3.625 -6 3 C-6.33 2.34 -6.66 1.68 -7 1 C-4.53721199 -0.231394 -2.7204945 -0.07159196 0 0 Z " fill="#B42C43" transform="translate(267,281)"/>
<path d="M0 0 C3.875 4.75 3.875 4.75 5 7 C3.35 7 1.7 7 0 7 C0 4.69 0 2.38 0 0 Z " fill="#B82439" transform="translate(315,345)"/>
<path d="M0 0 C0.33 0 0.66 0 1 0 C1 3.3 1 6.6 1 10 C0.34 10 -0.32 10 -1 10 C-1.33 10.66 -1.66 11.32 -2 12 C-1.44687265 7.97007218 -0.8441938 3.97977076 0 0 Z " fill="#C54C5F" transform="translate(180,317)"/>
<path d="M0 0 C2.29013653 3.4352048 2.17842973 4.985331 2 9 C1.01 9 0.02 9 -1 9 C-0.67 6.03 -0.34 3.06 0 0 Z " fill="#B72835" transform="translate(451,267)"/>
<path d="M0 0 C4.75 0.875 4.75 0.875 7 2 C6.67 2.99 6.34 3.98 6 5 C5.34 5 4.68 5 4 5 C4 4.01 4 3.02 4 2 C2.35 2.33 0.7 2.66 -1 3 C-0.67 2.01 -0.34 1.02 0 0 Z " fill="#B51D2A" transform="translate(301,237)"/>
<path d="M0 0 C0.66 0 1.32 0 2 0 C2.33 2.64 2.66 5.28 3 8 C2.01 8.495 2.01 8.495 1 9 C-0.4783226 6.04335481 -0.06032783 3.25770263 0 0 Z " fill="#AD1F2F" transform="translate(504,187)"/>
<path d="M0 0 C0.99 0 1.98 0 3 0 C2.34 1.32 1.68 2.64 1 4 C-0.32 4 -1.64 4 -3 4 C-1.6875 2 -1.6875 2 0 0 Z " fill="#F9E6E2" transform="translate(418,415)"/>
<path d="M0 0 C0.66 0.66 1.32 1.32 2 2 C1.625 5.625 1.625 5.625 1 9 C0.34 9 -0.32 9 -1 9 C-0.67 6.03 -0.34 3.06 0 0 Z " fill="#C44254" transform="translate(270,374)"/>
<path d="M0 0 C2 2 2 2 2 5 C2.66 5 3.32 5 4 5 C3.34 6.32 2.68 7.64 2 9 C0.14223235 5.86501708 -0.20140476 3.62528568 0 0 Z " fill="#FDE5E4" transform="translate(314,249)"/>
<path d="M0 0 C3.375 -0.125 3.375 -0.125 7 0 C7.66 0.66 8.32 1.32 9 2 C8.625 4.125 8.625 4.125 8 6 C7.34 4.35 6.68 2.7 6 1 C4.02 1 2.04 1 0 1 C0 0.67 0 0.34 0 0 Z " fill="#C84766" transform="translate(124,234)"/>
</svg>
