<?xml version="1.0" encoding="UTF-8"?>
<svg version="1.1" xmlns="http://www.w3.org/2000/svg" width="280" height="379">
<path d="M0 0 C92.4 0 184.8 0 280 0 C280 125.07 280 250.14 280 379 C187.6 379 95.2 379 0 379 C0 253.93 0 128.86 0 0 Z " fill="#FDFEFD" transform="translate(0,0)"/>
<path d="M0 0 C28.71 0 57.42 0 87 0 C87 121.44 87 242.88 87 368 C-2.1 368 -91.2 368 -183 368 C-183 340.28 -183 312.56 -183 284 C-177.20113285 285.44971679 -173.98759221 286.47330421 -169 289 C-163.72996552 290.58919 -158.36647651 291.78494871 -153 293 C-152.3414502 293.15533203 -151.68290039 293.31066406 -151.00439453 293.47070312 C-118.84643369 300.95721253 -84.84323595 292.74200959 -56.96875 275.76269531 C-53.43206431 273.41608857 -50.19095915 270.79208926 -47 268 C-45.6696875 266.8553125 -45.6696875 266.8553125 -44.3125 265.6875 C-41.83088546 263.50131576 -39.40902989 261.26558502 -37 259 C-36.39800781 258.46246094 -35.79601562 257.92492187 -35.17578125 257.37109375 C-15.72786899 239.28317535 -1.77791741 208.35389086 -0.80491257 181.94149017 C-0.69094896 177.14921182 -0.68676547 172.35687228 -0.68115234 167.56347656 C-0.67183763 165.72921311 -0.66166671 163.89495384 -0.65071106 162.06069946 C-0.62357082 157.11529562 -0.60830938 152.16992001 -0.59528303 147.22446156 C-0.57958209 142.04346823 -0.5528143 136.86253196 -0.5272522 131.68157959 C-0.48058714 121.88594425 -0.44378386 112.09029804 -0.41057932 102.29460883 C-0.36509852 89.04692564 -0.30427076 75.79931333 -0.24433136 62.55168915 C-0.1503945 41.70116174 -0.07686489 20.85061352 0 0 Z " fill="#017C34" transform="translate(190,8)"/>
<path d="M0 0 C37.95 0 75.9 0 115 0 C115 5.94 115 11.88 115 18 C77.05 18 39.1 18 0 18 C0 12.06 0 6.12 0 0 Z " fill="#0D823E" transform="translate(7,174)"/>
<path d="M0 0 C37.95 0 75.9 0 115 0 C115 5.94 115 11.88 115 18 C77.05 18 39.1 18 0 18 C0 12.06 0 6.12 0 0 Z " fill="#0E823E" transform="translate(7,32)"/>
<path d="M0 0 C37.95 0 75.9 0 115 0 C115 5.61 115 11.22 115 17 C77.05 17 39.1 17 0 17 C0 11.39 0 5.78 0 0 Z " fill="#077F38" transform="translate(7,203)"/>
<path d="M0 0 C37.95 0 75.9 0 115 0 C115 5.61 115 11.22 115 17 C77.05 17 39.1 17 0 17 C0 11.39 0 5.78 0 0 Z " fill="#087F39" transform="translate(7,146)"/>
<path d="M0 0 C37.95 0 75.9 0 115 0 C115 5.61 115 11.22 115 17 C77.05 17 39.1 17 0 17 C0 11.39 0 5.78 0 0 Z " fill="#047C35" transform="translate(7,118)"/>
<path d="M0 0 C37.95 0 75.9 0 115 0 C115 5.61 115 11.22 115 17 C77.05 17 39.1 17 0 17 C0 11.39 0 5.78 0 0 Z " fill="#057D36" transform="translate(7,89)"/>
<path d="M0 0 C37.95 0 75.9 0 115 0 C115 5.61 115 11.22 115 17 C77.05 17 39.1 17 0 17 C0 11.39 0 5.78 0 0 Z " fill="#077F39" transform="translate(7,61)"/>
<path d="M0 0 C4.29 0 8.58 0 13 0 C13 2.97 13 5.94 13 9 C8.71 9 4.42 9 0 9 C0 6.03 0 3.06 0 0 Z " fill="#138441" transform="translate(83,8)"/>
<path d="M0 0 C4.29 0 8.58 0 13 0 C13 2.97 13 5.94 13 9 C8.71 9 4.42 9 0 9 C0 6.03 0 3.06 0 0 Z " fill="#138441" transform="translate(58,8)"/>
<path d="M0 0 C3.96 0 7.92 0 12 0 C12 2.97 12 5.94 12 9 C8.04 9 4.08 9 0 9 C0 6.03 0 3.06 0 0 Z " fill="#0B803B" transform="translate(109,8)"/>
<path d="M0 0 C3.96 0 7.92 0 12 0 C12 2.97 12 5.94 12 9 C8.04 9 4.08 9 0 9 C0 6.03 0 3.06 0 0 Z " fill="#0B803B" transform="translate(33,8)"/>
<path d="M0 0 C3.96 0 7.92 0 12 0 C12 2.97 12 5.94 12 9 C8.04 9 4.08 9 0 9 C0 6.03 0 3.06 0 0 Z " fill="#0A803A" transform="translate(8,8)"/>
</svg>
