<?xml version="1.0" standalone="no"?>
<!DOCTYPE svg PUBLIC "-//W3C//DTD SVG 20010904//EN"
 "http://www.w3.org/TR/2001/REC-SVG-20010904/DTD/svg10.dtd">
<svg version="1.0" xmlns="http://www.w3.org/2000/svg"
 width="357.000000pt" height="355.000000pt" viewBox="0 0 357.000000 355.000000"
 preserveAspectRatio="xMidYMid meet">

<g transform="translate(0.000000,355.000000) scale(0.100000,-0.100000)"
fill="#000000" stroke="none">
<path d="M0 1775 l0 -1775 1785 0 1785 0 0 1775 0 1775 -1785 0 -1785 0 0
-1775z m887 1097 c10 -6 13 -219 15 -988 l3 -979 170 -5 170 -5 3 -123 3 -122
-296 0 -295 0 0 1109 c0 878 3 1110 13 1114 20 9 201 7 214 -1z m1141 -111 c2
-75 -1 -118 -9 -127 -7 -9 -33 -14 -73 -14 -78 0 -127 -18 -191 -67 -75 -58
-95 -107 -95 -230 0 -80 5 -111 25 -168 34 -92 114 -250 181 -356 141 -224
204 -396 204 -557 0 -348 -219 -592 -531 -592 l-90 0 3 123 3 122 75 6 c173
13 275 111 287 273 5 66 -13 177 -37 226 -4 8 -31 62 -59 120 -28 58 -78 150
-110 205 -69 115 -151 274 -168 325 -53 154 -55 300 -6 460 53 174 195 307
373 349 70 16 91 19 155 17 l60 -1 3 -114z m866 113 c24 -9 24 -239 0 -248 -9
-3 -90 -6 -180 -6 l-164 0 2 -347 3 -348 165 -5 165 -5 3 -127 3 -128 -168 -2
-168 -3 0 -375 0 -375 175 -5 175 -5 3 -123 3 -122 -303 2 -303 3 -3 1097 c-2
987 -1 1098 14 1112 13 14 53 16 289 16 150 0 280 -3 289 -6z"/>
</g>
</svg>
