<?xml version="1.0" encoding="UTF-8"?>
<svg version="1.1" xmlns="http://www.w3.org/2000/svg" width="412" height="411">
<path d="M0 0 C135.96 0 271.92 0 412 0 C412 135.63 412 271.26 412 411 C276.04 411 140.08 411 0 411 C0 275.37 0 139.74 0 0 Z " fill="#FEFEFE" transform="translate(0,0)"/>
<path d="M0 0 C2.70039893 2.38864395 4.04955217 4.80744831 5.58203125 8.0546875 C6.09032471 9.12090332 6.59861816 10.18711914 7.12231445 11.28564453 C7.68007568 12.47013184 8.23783691 13.65461914 8.8125 14.875 C10.06970932 17.51715811 11.33195447 20.15690464 12.59375 22.796875 C12.93565872 23.51372467 13.27756744 24.23057434 13.62983704 24.96914673 C17.82363654 33.75025417 22.11005506 42.48602011 26.39154053 51.22460938 C28.77593887 56.0915227 31.15762501 60.95976236 33.5390625 65.828125 C34.00611603 66.7828772 34.47316956 67.73762939 34.95437622 68.72131348 C39.21398518 77.43182531 43.45476473 86.15140357 47.6875 94.875 C49.05855388 97.70054018 50.429624 100.52607248 51.80078125 103.3515625 C52.14066574 104.05195648 52.48055023 104.75235046 52.83073425 105.47396851 C58.97792334 118.13816214 65.15044165 130.79004914 71.31814575 143.44425964 C74.30879108 149.58053048 77.29726885 155.71785462 80.28515625 161.85546875 C81.58348511 164.5220286 82.88185282 167.18856953 84.18023682 169.85510254 C85.00879007 171.55693701 85.83720328 173.25883968 86.66546631 174.96081543 C87.81695762 177.32692895 88.96897283 179.69278675 90.12109375 182.05859375 C90.45569107 182.74648483 90.79028839 183.43437592 91.13502502 184.14311218 C91.45454636 184.79898819 91.77406769 185.4548642 92.10327148 186.13061523 C92.41086395 186.76289032 92.71845642 187.39516541 93.03536987 188.04660034 C93.72201021 189.43706385 94.42160868 190.82116047 95.12991333 192.20071411 C95.49704437 192.91701996 95.86417542 193.63332581 96.24243164 194.37133789 C96.57868057 195.01897598 96.9149295 195.66661407 97.2613678 196.33387756 C98 198 98 198 98 200 C33.98 200 -30.04 200 -96 200 C-94.72059109 196.16177327 -93.57378256 192.88513213 -91.84765625 189.31640625 C-91.19216797 187.95515625 -91.19216797 187.95515625 -90.5234375 186.56640625 C-90.04132813 185.57511719 -89.55921875 184.58382812 -89.0625 183.5625 C-88.54816406 182.49773437 -88.03382812 181.43296875 -87.50390625 180.3359375 C-85.67466167 176.55465183 -83.83857266 172.77675618 -82 169 C-81.63960632 168.25965515 -81.27921265 167.5193103 -80.90789795 166.75653076 C-77.27372114 159.29243527 -73.63660179 151.82977502 -69.99682617 144.3684082 C-65.59475046 135.34221166 -61.20928441 126.30898993 -56.875 117.25 C-52.20185595 107.48276719 -47.48370646 97.73797837 -42.75 88 C-42.3897171 87.2588092 -42.0294342 86.51761841 -41.65823364 85.75396729 C-40.1955463 82.74499413 -38.73276907 79.73606469 -37.26985168 76.72720337 C-33.44606524 68.86206629 -29.6281534 60.99408544 -25.8125 53.125 C-25.48540039 52.45050812 -25.15830078 51.77601624 -24.82128906 51.08108521 C-21.2164872 43.64718616 -17.616918 36.21079628 -14.02734375 28.76953125 C-13.70671463 28.10491882 -13.38608551 27.4403064 -13.05574036 26.7555542 C-11.54116113 23.61565607 -10.02744238 20.47534926 -8.51489258 17.33447266 C-5.71896001 11.53416282 -2.89931709 5.74937393 0 0 Z " fill="#102268" transform="translate(207,209)"/>
<path d="M0 0 C134.64 0 269.28 0 408 0 C408 5.94 408 11.88 408 18 C273.36 18 138.72 18 0 18 C0 12.06 0 6.12 0 0 Z " fill="#102268" transform="translate(3,3)"/>
<path d="M0 0 C134.64 0 269.28 0 408 0 C408 5.61 408 11.22 408 17 C273.36 17 138.72 17 0 17 C0 11.39 0 5.78 0 0 Z " fill="#102268" transform="translate(3,68)"/>
<path d="M0 0 C134.64 0 269.28 0 408 0 C408 5.61 408 11.22 408 17 C273.36 17 138.72 17 0 17 C0 11.39 0 5.78 0 0 Z " fill="#102268" transform="translate(3,36)"/>
<path d="M0 0 C53.13 0 106.26 0 161 0 C158.85565217 2.14434783 157.62176083 2.61799528 154.8125 3.625 C150.03423502 5.46924262 145.56771617 7.70661085 141.0625 10.125 C140.41192627 10.47385254 139.76135254 10.82270508 139.09106445 11.18212891 C136.30857418 12.6909927 133.63559332 14.24293779 131 16 C128.58498096 16.24609566 128.58498096 16.24609566 125.66596985 16.24050903 C124.55959167 16.24325836 123.4532135 16.24600769 122.31330872 16.24884033 C121.0991478 16.24164978 119.88498688 16.23445923 118.6340332 16.22705078 C116.71679947 16.22748886 116.71679947 16.22748886 114.76083374 16.22793579 C111.25486877 16.22851025 107.7490403 16.21674096 104.24310708 16.20278788 C100.57957413 16.19029599 96.91603814 16.18911124 93.25248718 16.18673706 C86.31456888 16.18051775 79.3767135 16.16410085 72.43882293 16.14403808 C64.54048443 16.1216931 56.64214296 16.11068918 48.74378073 16.10064721 C32.49581592 16.079735 16.24791847 16.04414801 0 16 C0 10.72 0 5.44 0 0 Z " fill="#102268" transform="translate(4,101)"/>
<path d="M0 0 C52.8 0 105.6 0 160 0 C160 5.28 160 10.56 160 16 C143.29201243 16.18579293 126.58445598 16.32826075 109.87568474 16.41449738 C102.11614523 16.45561655 94.35726234 16.51159874 86.59814453 16.60351562 C79.82926589 16.68366308 73.06086311 16.73496153 66.2915231 16.75270796 C62.71231238 16.76306994 59.13446204 16.78713269 55.55569077 16.84584045 C27.8633564 17.28282339 27.8633564 17.28282339 16 8 C13.09967772 6.51196551 10.13650556 5.24427475 7.125 4 C6.42503906 3.70222656 5.72507812 3.40445313 5.00390625 3.09765625 C3.33919246 2.390723 1.67011605 1.6940742 0 1 C0 0.67 0 0.34 0 0 Z " fill="#102268" transform="translate(251,101)"/>
<path d="M0 0 C36.3 0 72.6 0 110 0 C108.22571668 3.54856664 106.69758671 5.63428187 104.0625 8.5 C101.16979619 11.56910605 101.16979619 11.56910605 98.95451355 15.11029053 C95.73540222 18.22266863 92.05758376 17.52313928 87.75512695 17.45410156 C86.33532532 17.45497772 86.33532532 17.45497772 84.88684082 17.45587158 C81.75361647 17.45308158 78.62133971 17.42194587 75.48828125 17.390625 C73.31781026 17.38316588 71.14733254 17.3774714 68.97685242 17.37347412 C63.2605433 17.35819196 57.54463989 17.31888758 51.82849121 17.2746582 C45.99704477 17.23376135 40.16553285 17.21547503 34.33398438 17.1953125 C22.88914454 17.15239609 11.44460599 17.0841133 0 17 C0 11.39 0 5.78 0 0 Z " fill="#1B2C6E" transform="translate(4,133)"/>
<path d="M0 0 C35.97 0 71.94 0 109 0 C109 5.61 109 11.22 109 17 C96.67382096 17.30199526 84.34852976 17.53258571 72.01939678 17.67355824 C66.2934163 17.74124157 60.56997687 17.83293781 54.84545898 17.98071289 C49.31442883 18.12258993 43.78583238 18.19981835 38.25312233 18.23340416 C36.14897158 18.25731707 34.04494552 18.30402004 31.94183922 18.37449074 C14.63469841 18.93103732 14.63469841 18.93103732 9.25918579 14.16000366 C5.28910001 9.90231657 2.60041944 5.20083888 0 0 Z " fill="#1A2C6E" transform="translate(302,133)"/>
<path d="M0 0 C28.71 0 57.42 0 87 0 C81 15 81 15 80 16 C77.50507612 16.09502416 75.03793986 16.12557566 72.54272461 16.11352539 C71.76229294 16.11367142 70.98186127 16.11381744 70.17778015 16.1139679 C67.5859402 16.11326858 64.99417122 16.10547536 62.40234375 16.09765625 C60.6101536 16.09579213 58.81796294 16.0943682 57.02577209 16.09336853 C52.29929203 16.08954284 47.57284248 16.07971212 42.84637451 16.06866455 C38.0271445 16.05845153 33.20790958 16.05387115 28.38867188 16.04882812 C18.92576565 16.03808989 9.46289013 16.02049268 0 16 C0 10.72 0 5.44 0 0 Z " fill="#102268" transform="translate(4,166)"/>
<path d="M0 0 C24.42 0 48.84 0 74 0 C74 5.94 74 11.88 74 18 C49.58 18 25.16 18 0 18 C0 12.06 0 6.12 0 0 Z " fill="#102268" transform="translate(3,327)"/>
<path d="M0 0 C28.38 0 56.76 0 86 0 C86 5.28 86 10.56 86 16 C59.6 16 33.2 16 6 16 C4.02 10.72 2.04 5.44 0 0 Z " fill="#102268" transform="translate(325,166)"/>
<path d="M0 0 C23.76 0 47.52 0 72 0 C72 5.94 72 11.88 72 18 C48.24 18 24.48 18 0 18 C0 12.06 0 6.12 0 0 Z " fill="#102268" transform="translate(339,327)"/>
<path d="M0 0 C24.42 0 48.84 0 74 0 C74 5.61 74 11.22 74 17 C49.58 17 25.16 17 0 17 C0 11.39 0 5.78 0 0 Z " fill="#102268" transform="translate(3,392)"/>
<path d="M0 0 C24.42 0 48.84 0 74 0 C74 5.61 74 11.22 74 17 C49.58 17 25.16 17 0 17 C0 11.39 0 5.78 0 0 Z " fill="#102268" transform="translate(3,360)"/>
<path d="M0 0 C24.42 0 48.84 0 74 0 C74 5.61 74 11.22 74 17 C49.58 17 25.16 17 0 17 C0 11.39 0 5.78 0 0 Z " fill="#102268" transform="translate(3,295)"/>
<path d="M0 0 C24.42 0 48.84 0 74 0 C74 5.61 74 11.22 74 17 C49.58 17 25.16 17 0 17 C0 11.39 0 5.78 0 0 Z " fill="#102268" transform="translate(3,263)"/>
<path d="M0 0 C24.42 0 48.84 0 74 0 C74 5.61 74 11.22 74 17 C49.58 17 25.16 17 0 17 C0 11.39 0 5.78 0 0 Z " fill="#102268" transform="translate(3,230)"/>
<path d="M0 0 C23.76 0 47.52 0 72 0 C72 5.61 72 11.22 72 17 C48.24 17 24.48 17 0 17 C0 11.39 0 5.78 0 0 Z " fill="#102268" transform="translate(339,392)"/>
<path d="M0 0 C23.76 0 47.52 0 72 0 C72 5.61 72 11.22 72 17 C48.24 17 24.48 17 0 17 C0 11.39 0 5.78 0 0 Z " fill="#102268" transform="translate(339,360)"/>
<path d="M0 0 C23.76 0 47.52 0 72 0 C72 5.61 72 11.22 72 17 C48.24 17 24.48 17 0 17 C0 11.39 0 5.78 0 0 Z " fill="#102268" transform="translate(339,295)"/>
<path d="M0 0 C23.76 0 47.52 0 72 0 C72 5.61 72 11.22 72 17 C48.24 17 24.48 17 0 17 C0 11.39 0 5.78 0 0 Z " fill="#102268" transform="translate(339,263)"/>
<path d="M0 0 C23.76 0 47.52 0 72 0 C72 5.61 72 11.22 72 17 C48.24 17 24.48 17 0 17 C0 11.39 0 5.78 0 0 Z " fill="#102268" transform="translate(339,230)"/>
<path d="M0 0 C24.75 0 49.5 0 75 0 C74 15 74 15 73 16 C70.73008113 16.09439978 68.45718033 16.11742226 66.18530273 16.11352539 C65.11706772 16.11374443 65.11706772 16.11374443 64.0272522 16.1139679 C61.66266888 16.1132687 59.29816339 16.10547606 56.93359375 16.09765625 C55.29834537 16.09579209 53.66309643 16.09436818 52.02784729 16.09336853 C47.71565215 16.08954318 43.40349048 16.07971275 39.09130859 16.06866455 C34.69434054 16.0584508 30.29736711 16.05387099 25.90039062 16.04882812 C17.26690998 16.03809049 8.63346301 16.02049356 0 16 C0 10.72 0 5.44 0 0 Z " fill="#14256A" transform="translate(4,198)"/>
<path d="M0 0 C24.75 0 49.5 0 75 0 C75 5.28 75 10.56 75 16 C50.91 16 26.82 16 2 16 C1.34 10.72 0.68 5.44 0 0 Z " fill="#14266A" transform="translate(336,198)"/>
</svg>
